<svg version="1.1" id="Layer_1" xmlns="http://www.w3.org/2000/svg" xmlns:xlink="http://www.w3.org/1999/xlink" x="0px" y="0px"
	 width="100%" viewBox="0 0 592 592" enable-background="new 0 0 592 592" xml:space="preserve">
<path fill="#000000" opacity="1.000000" stroke="none" 
	d="
M593.000000,228.000000 
	C593.000000,350.000000 593.000000,471.500000 593.000000,593.000000 
	C395.666656,593.000000 198.333328,593.000000 1.000000,593.000000 
	C1.000000,395.666656 1.000000,198.333328 1.000000,1.000000 
	C198.333328,1.000000 395.666656,1.000000 593.000000,1.000000 
	C593.000000,76.500000 593.000000,152.000000 593.000000,228.000000 
M563.634583,228.559296 
	C557.700256,206.314697 549.466858,185.005692 538.024780,164.969376 
	C522.997559,138.655151 504.552124,115.194527 481.877075,94.928192 
	C461.499023,76.714790 439.054199,61.931385 414.401886,50.242714 
	C379.332458,33.614826 342.262939,25.809652 303.682953,24.454903 
	C296.044586,24.186678 288.414978,24.782307 280.770599,25.275463 
	C265.972748,26.230101 251.347626,28.231434 236.968369,31.622606 
	C210.624481,37.835495 185.613495,47.495716 162.066391,61.046062 
	C132.764191,77.908218 107.434883,99.453209 86.116409,125.503639 
	C67.471352,148.287262 53.000542,173.654160 42.414539,201.246353 
	C31.235172,230.385162 25.881243,260.614685 24.438311,291.629639 
	C24.060417,299.752197 24.684759,307.884521 25.198296,316.025604 
	C25.847321,326.314636 26.841387,336.550415 28.703718,346.636108 
	C33.983063,375.227051 43.296482,402.421173 57.097305,428.132751 
	C73.494080,458.680695 94.773888,485.259125 121.127892,507.611328 
	C143.549484,526.628235 168.408981,541.882507 195.826309,552.845093 
	C224.265305,564.216248 253.806458,570.729431 284.292084,572.470886 
	C299.864868,573.360413 315.492310,572.679504 331.072083,570.756409 
	C350.088074,568.409180 368.742615,564.461487 386.799225,558.287903 
	C416.575989,548.107178 443.960846,533.325928 468.662903,513.652405 
	C487.091278,498.975403 503.488892,482.351440 517.640015,463.554291 
	C537.318115,437.415619 552.002930,408.687134 561.241028,377.271271 
	C568.007996,354.259308 572.135803,330.761383 572.544373,306.741821 
	C572.710815,296.954285 572.669495,287.170013 571.823181,277.338867 
	C570.424561,261.088959 567.962036,245.105652 563.634583,228.559296 
z"/>
<path fill="#000000" opacity="1.000000" stroke="none" 
	d="
M418.316071,300.730286 
	C419.335419,303.799957 420.127594,306.532654 421.281708,309.102814 
	C424.307526,315.841217 423.268646,322.422791 420.773834,328.971039 
	C419.772705,331.598846 417.883026,333.484528 415.172455,334.296997 
	C410.850677,335.592377 406.384247,336.487610 401.894043,336.048279 
	C390.776245,334.960480 384.957214,328.504150 384.668671,317.211212 
	C384.262909,301.331818 387.023712,285.739014 389.238708,270.117523 
	C391.826080,251.869537 394.749725,233.668457 397.634338,215.463959 
	C398.230377,211.702774 399.323059,208.021835 400.138489,204.293350 
	C400.839966,201.085861 401.388885,197.864517 400.345703,194.371964 
	C397.318878,194.828293 395.647614,196.805740 393.781860,198.306854 
	C372.607880,215.342865 353.070923,234.236343 332.716187,252.202988 
	C320.978333,262.563721 309.346344,273.069946 296.245605,281.746307 
	C290.674042,285.436249 284.771271,288.433655 278.322632,290.391998 
	C270.473175,292.775757 263.900238,290.743988 258.182861,285.205139 
	C252.716385,279.909393 249.089767,273.313232 245.483658,266.748016 
	C236.181046,249.811859 228.332336,232.114365 218.665848,215.365662 
	C217.333649,213.057373 216.056412,210.716827 214.695206,208.426010 
	C214.024246,207.296814 213.374664,205.908615 211.762421,206.092758 
	C210.159653,206.275833 209.815323,207.768784 209.422913,209.013351 
	C207.521561,215.043457 205.649734,221.083130 203.809448,227.132187 
	C195.284836,255.152802 184.755600,282.526489 176.828247,310.739136 
	C175.074951,316.978943 173.192764,323.191254 172.239700,329.625580 
	C171.763672,332.839294 170.079147,335.035461 167.152237,336.531769 
	C160.726227,339.816925 154.261826,340.915161 147.570068,337.442657 
	C140.212067,333.624420 137.910080,328.876740 139.402039,320.705109 
	C142.751266,302.360962 150.824951,285.633179 157.437683,268.420502 
	C166.091019,245.896286 175.457748,223.625168 181.068115,200.063004 
	C182.953232,192.146042 184.402924,184.119553 184.688354,175.952545 
	C185.094666,164.326797 188.553162,160.658142 200.254440,159.673370 
	C215.297958,158.407333 221.635986,162.170135 228.863281,175.864029 
	C242.699234,202.079605 256.615662,228.254272 270.729279,254.321060 
	C276.899261,265.716522 279.377350,266.135864 289.765717,258.281311 
	C312.667633,240.965317 333.194855,220.918228 354.450958,201.711090 
	C369.037231,188.530853 383.577484,175.292343 399.329865,163.485458 
	C411.067413,154.687805 420.796234,154.406830 433.267761,162.170517 
	C436.699615,164.306900 437.759430,166.934341 436.966705,170.982605 
	C432.051880,196.081482 426.324493,221.034943 422.727814,246.374451 
	C420.672882,260.851868 419.086700,275.398010 417.455322,289.931824 
	C417.068115,293.381500 417.045197,296.930573 418.316071,300.730286 
z"/>
<path fill="#000000" opacity="1.000000" stroke="none" 
	d="
M232.381256,394.702179 
	C215.256027,401.644958 199.260376,393.963806 195.436340,377.311859 
	C192.326492,363.769867 200.477676,350.336792 213.862427,346.945801 
	C227.796997,343.415527 241.791336,351.555237 245.290192,365.225586 
	C248.300156,376.985809 243.839081,387.379120 232.381256,394.702179 
z"/>
<path fill="#000000" opacity="1.000000" stroke="none" 
	d="
M325.011353,81.898346 
	C322.065063,87.540062 319.318909,92.870560 316.506989,98.166138 
	C315.589874,99.893303 314.882050,102.094231 312.413971,102.026855 
	C309.761139,101.954453 309.565430,99.486267 308.965698,97.702393 
	C305.306610,86.818932 301.779266,75.891220 298.140564,65.000793 
	C297.533478,63.183781 297.389954,61.004967 295.162567,59.974937 
	C292.554108,60.912563 292.734558,63.453735 292.542816,65.372124 
	C291.683167,73.972694 291.330933,82.627220 290.346161,91.210716 
	C289.835419,95.662819 293.861359,96.310425 296.487427,99.626480 
	C289.583679,101.246201 283.726257,99.134552 277.997894,98.987244 
	C277.426178,96.776985 278.242523,95.928238 279.529083,95.815331 
	C283.227905,95.490715 284.202850,92.820740 284.448273,89.908783 
	C285.592926,76.326256 286.339233,62.705502 287.746033,49.152187 
	C288.257233,44.227509 285.354645,41.761524 281.606873,38.732635 
	C288.028748,36.513664 293.336761,38.326477 298.591156,39.080872 
	C300.618988,39.372017 300.714325,41.880428 301.274078,43.554195 
	C305.073975,54.916592 308.763306,66.316055 312.589569,77.669426 
	C313.192505,79.458450 313.257660,82.054710 315.717712,82.338684 
	C318.203064,82.625565 318.831635,80.177765 319.724640,78.474266 
	C325.137482,68.148499 330.606812,57.849140 335.797791,47.411915 
	C337.726990,43.532997 339.839081,41.249702 344.613434,42.498699 
	C348.076843,43.404747 352.111420,41.676003 356.250549,44.827076 
	C344.785828,49.163879 349.132019,58.999748 347.686493,66.483894 
	C346.056702,74.922173 346.294373,83.704872 345.326508,92.293449 
	C344.754791,97.366913 346.356842,100.923416 351.231598,103.608101 
	C343.630096,104.974213 336.593262,104.084930 329.633850,102.921669 
	C329.541962,102.124565 329.419220,101.542633 329.480499,101.522575 
	C336.133148,99.344101 335.796112,93.645554 336.159882,88.309937 
	C336.680145,80.679535 337.202515,73.049171 337.678619,65.415970 
	C337.747864,64.305595 338.025696,63.033878 335.654938,61.690540 
	C332.164612,68.319481 328.675293,74.946510 325.011353,81.898346 
z"/>
<path fill="#000000" opacity="1.000000" stroke="none" 
	d="
M46.619785,275.853516 
	C61.699516,275.608795 76.354927,275.819153 90.984161,274.752289 
	C93.781113,274.548340 95.813560,273.870819 96.702583,270.998077 
	C97.043961,269.894958 97.575096,268.797455 100.127457,268.920685 
	C99.878540,275.874481 101.668518,282.847687 99.648804,290.676483 
	C96.558701,282.003998 90.260689,284.822205 84.663681,285.045959 
	C77.509491,285.331940 70.342072,285.273651 63.181843,285.431427 
	C61.412106,285.470428 59.486645,284.939545 57.656017,286.667206 
	C59.344402,289.207733 62.227398,289.690552 64.699776,290.662384 
	C75.234970,294.803558 85.837311,298.774170 96.365845,302.931854 
	C98.386024,303.729614 101.249130,303.985901 101.213181,307.150787 
	C101.181099,309.974396 98.580650,310.341278 96.736076,311.203156 
	C85.273094,316.558990 73.760811,321.809265 62.271141,327.108124 
	C60.788952,327.791687 59.342976,328.553741 57.996628,330.504089 
	C64.451164,330.504089 70.907204,330.587067 77.359642,330.470825 
	C80.848244,330.408020 84.327553,329.940765 87.816620,329.768982 
	C95.015518,329.414703 95.017052,329.445862 101.419235,323.337799 
	C102.848778,329.847412 102.322472,335.703613 102.125381,341.728912 
	C101.071480,341.649536 100.250313,341.742401 100.183960,341.560303 
	C98.021973,335.626343 93.127213,336.138184 88.251556,336.299347 
	C75.607269,336.717438 62.960316,337.083282 50.311623,337.320435 
	C47.075504,337.381134 44.806652,338.228851 44.092037,341.691681 
	C43.887161,342.684479 43.217072,343.476715 41.063778,343.750214 
	C40.771740,338.442535 40.265839,333.142303 40.299080,327.845459 
	C40.311562,325.857147 42.733410,325.336151 44.371960,324.580719 
	C55.108562,319.630981 65.866058,314.726440 76.589561,309.748566 
	C78.953941,308.651031 81.557701,307.908722 83.447525,305.858154 
	C82.452698,303.655792 80.305489,303.380341 78.536430,302.683929 
	C67.075302,298.171936 55.641163,293.578156 44.064342,289.380310 
	C39.935902,287.883301 38.125561,285.650391 38.626293,281.316681 
	C39.033607,277.791504 37.953079,274.114807 39.492573,270.403473 
	C42.906994,271.095398 42.400742,276.183960 46.619785,275.853516 
z"/>
<path fill="#000000" opacity="1.000000" stroke="none" 
	d="
M544.560425,277.679260 
	C533.980957,282.538025 523.738464,287.226807 512.958008,292.161835 
	C515.943054,295.361755 519.297424,296.054840 522.274475,297.260925 
	C532.608643,301.447449 542.968262,305.585724 553.437378,309.416565 
	C557.206604,310.795776 558.827026,312.877686 558.370605,316.809052 
	C557.943726,320.486420 559.171265,324.316345 557.106812,329.303436 
	C553.583313,319.153931 545.889099,322.529907 539.617249,322.480713 
	C528.471008,322.393250 517.320374,323.088409 506.168640,323.309753 
	C503.361481,323.365448 501.262238,324.023285 500.409698,326.933990 
	C500.076080,328.072968 499.742462,329.211853 497.504303,329.384552 
	C495.921265,322.429077 496.638733,315.444855 497.541931,307.868896 
	C501.515869,316.716644 508.947723,313.275177 515.069946,313.528656 
	C523.659729,313.884338 532.275208,313.618500 542.132568,313.618500 
	C539.966980,310.139038 537.913330,309.878540 536.189087,309.193420 
	C524.432678,304.522430 512.642578,299.936066 500.901672,295.226837 
	C498.846130,294.402374 495.978485,294.023071 495.969788,291.015533 
	C495.961731,288.223846 498.759521,287.972321 500.590118,287.123810 
	C512.372070,281.662811 524.215942,276.335602 536.026428,270.935852 
	C537.506348,270.259216 538.909424,269.414673 540.688599,268.466492 
	C536.894226,266.689331 533.469299,267.887848 530.076050,267.975952 
	C523.250061,268.153198 516.421143,268.332489 509.594055,268.313477 
	C504.452362,268.299164 499.028259,267.343292 496.937408,274.719818 
	C495.345642,268.185669 494.022186,262.364502 496.447266,255.792572 
	C499.910736,264.456116 506.799133,261.891937 512.814819,261.725983 
	C523.130981,261.441437 533.454895,262.031158 543.772400,261.164703 
	C548.502197,260.767456 553.438660,261.402893 554.300598,255.179916 
	C557.159180,255.273895 557.011475,256.983093 557.172302,258.422729 
	C558.634827,271.508453 558.630005,271.509003 544.560425,277.679260 
z"/>
<path fill="#000000" opacity="1.000000" stroke="none" 
	d="
M350.184631,490.786438 
	C354.206909,491.029297 357.711945,488.611786 361.338104,490.287506 
	C361.416412,490.712555 361.597321,491.268433 361.515350,491.310364 
	C355.402893,494.437714 356.676208,499.746643 357.387360,504.949188 
	C359.096802,517.454895 360.945251,529.947327 362.304138,542.492065 
	C362.806244,547.127441 367.034241,546.903503 370.165497,549.645142 
	C364.651398,551.999817 359.444550,552.200134 354.377197,552.409546 
	C350.869690,552.554382 350.392151,548.783752 349.014954,546.500061 
	C342.564972,535.804199 336.293640,525.000549 329.932587,514.250732 
	C329.288788,513.162781 328.953400,511.715607 327.235962,511.475494 
	C325.385834,513.141113 325.285248,515.605469 324.681885,517.760864 
	C321.408691,529.453430 318.168213,541.157959 315.168579,552.922607 
	C314.218933,556.647217 312.585632,558.657288 308.510223,558.780090 
	C304.781921,558.892517 301.106812,560.210876 297.483765,559.737244 
	C296.768372,558.252686 297.180420,557.298157 298.183533,556.877136 
	C302.180725,555.199463 302.070374,551.904968 301.628571,548.474060 
	C300.185699,537.268982 298.852661,526.047241 297.202820,514.872437 
	C296.356018,509.136871 297.738403,501.923492 288.471741,500.372070 
	C295.825836,497.538666 302.821075,496.937164 309.808594,496.499603 
	C310.011536,497.330841 310.231934,497.877319 310.145630,497.931061 
	C304.801544,501.257782 305.503113,506.148468 306.321259,511.334015 
	C307.871399,521.159058 309.085266,531.037109 310.469177,541.114014 
	C312.516754,540.556335 312.460876,539.122742 312.792511,537.931702 
	C316.405945,524.955566 320.012909,511.977661 323.658722,499.010620 
	C324.227539,496.987579 324.353180,494.417786 327.041992,494.002625 
	C329.852692,493.568634 330.476410,496.173767 331.532990,497.948151 
	C338.690216,509.967468 345.798401,522.015991 352.933167,534.048706 
	C353.352936,534.756592 353.866852,535.408813 354.880737,536.871399 
	C354.749939,527.782166 353.038391,519.740906 352.169769,511.621307 
	C352.028381,510.299652 351.867889,508.976501 351.633087,507.669006 
	C350.628906,502.076477 352.216614,495.142517 343.433289,493.699249 
	C345.470093,491.004700 347.832581,491.451904 350.184631,490.786438 
z"/>
<path fill="#000000" opacity="1.000000" stroke="none" 
	d="
M78.981644,202.367493 
	C80.029442,199.865677 79.062088,198.443115 77.173164,197.596741 
	C73.836922,196.101852 70.372299,194.881241 67.089104,193.283478 
	C63.511868,191.542572 62.894703,196.859573 59.272110,196.013245 
	C58.852749,191.491501 59.999603,187.032425 61.407730,182.811859 
	C62.347446,179.995255 64.819206,181.942688 66.494606,182.639954 
	C81.083382,188.711456 95.640305,194.859451 110.213654,200.968094 
	C114.593903,202.804169 119.078705,206.004333 122.637207,199.434952 
	C125.249405,204.713379 124.463768,209.903580 120.484520,212.370682 
	C117.692253,214.101868 117.361237,216.223068 117.322830,219.021606 
	C117.129532,233.105331 105.770653,241.062546 92.320129,236.685181 
	C77.536667,231.874039 71.211639,219.023315 78.981644,202.367493 
M97.137405,227.522232 
	C106.090195,227.908722 110.838448,225.021271 112.352974,218.128098 
	C113.001122,215.178085 112.777687,212.442032 109.456055,211.038071 
	C102.726799,208.193787 96.010445,205.318680 89.267059,202.508362 
	C87.248146,201.666977 85.538521,201.840302 84.056168,203.876144 
	C79.375694,210.304245 80.723267,218.712250 87.341400,223.142258 
	C90.117020,225.000168 93.127716,226.398438 97.137405,227.522232 
z"/>
<path fill="#000000" opacity="1.000000" stroke="none" 
	d="
M414.118347,132.325607 
	C416.191742,134.469406 416.816895,136.441895 413.249969,136.108749 
	C409.338318,135.743408 405.066132,135.064880 403.746277,130.258026 
	C403.061951,127.765678 401.325012,127.502129 399.185913,127.354713 
	C387.958466,126.580956 380.864502,119.606064 380.976562,109.568115 
	C381.102509,98.283836 390.706085,87.245682 400.741516,86.612900 
	C406.768250,86.232887 412.413940,87.363731 417.412872,90.659073 
	C420.838470,92.917236 422.867767,92.076981 424.461456,88.696251 
	C424.602814,88.396347 424.810028,88.128143 424.962982,87.832939 
	C427.371887,83.184410 432.025330,78.834023 426.453430,72.793564 
	C431.938202,72.709274 436.315887,74.821930 440.695526,76.205566 
	C441.542297,78.862831 439.911438,80.359268 438.983063,82.030792 
	C430.983185,96.434410 422.919006,110.802361 414.934418,125.214417 
	C413.772156,127.312302 411.903656,129.434753 414.118347,132.325607 
M392.219971,116.928230 
	C394.182159,120.287186 397.203308,122.196220 400.850494,123.270798 
	C403.216248,123.967842 405.136353,123.497978 406.391113,121.237137 
	C410.108490,114.539261 413.833069,107.845222 417.510529,101.125420 
	C418.340179,99.609283 418.694122,98.134972 417.248901,96.567513 
	C412.586639,91.510872 403.657898,90.755783 398.609619,95.577721 
	C392.776764,101.149040 389.416016,107.812424 392.219971,116.928230 
z"/>
<path fill="#000000" opacity="1.000000" stroke="none" 
	d="
M244.072144,527.485291 
	C237.731659,529.670410 231.799713,528.882385 226.109848,526.826721 
	C222.351852,525.468994 220.848175,526.660706 220.252686,530.191650 
	C220.115814,531.003235 219.721252,531.767883 219.520645,532.572937 
	C218.331085,537.346741 214.907852,542.354919 222.475647,546.248230 
	C216.183380,548.221252 211.611008,546.581787 207.102875,546.118408 
	C205.944138,543.930542 206.884323,542.252380 207.401703,540.552429 
	C212.048294,525.285217 216.620422,509.994598 221.406006,494.771057 
	C222.825897,490.254181 223.774368,486.118622 217.212387,482.657288 
	C223.783630,481.405670 228.271011,480.554047 231.455643,485.327667 
	C232.786835,487.323090 234.309067,487.605865 236.553146,487.257019 
	C251.266754,484.969727 261.263733,495.541748 258.034790,510.162994 
	C256.315613,517.947693 252.594238,524.489685 244.072144,527.485291 
M224.575027,515.702698 
	C224.240524,517.733582 223.054596,519.753296 225.654327,521.425354 
	C232.050140,525.539001 240.348328,523.954529 244.566757,517.572998 
	C246.897125,514.047729 248.208176,510.107086 248.573227,505.934723 
	C249.217178,498.574524 245.764008,493.923553 238.586487,492.128204 
	C233.225281,490.787170 231.975357,491.492584 230.317856,496.918671 
	C228.478622,502.939606 226.681458,508.973358 224.575027,515.702698 
z"/>
<path fill="#000000" opacity="1.000000" stroke="none" 
	d="
M480.707764,394.523346 
	C477.482300,393.727875 476.044922,396.400909 474.017853,397.672729 
	C471.840302,392.493286 472.695679,388.269226 476.732819,385.619354 
	C479.030792,384.110992 479.622101,382.377045 479.671509,379.840393 
	C479.933380,366.394623 487.628967,359.402557 500.602356,360.653992 
	C513.329834,361.881683 523.079834,373.752045 520.847717,385.583099 
	C520.206177,388.983368 519.053528,392.346985 517.681091,395.531738 
	C516.463867,398.356110 517.111023,399.895020 519.836487,400.961517 
	C522.779419,402.113098 525.801514,403.152069 528.563232,404.655151 
	C532.226196,406.648651 533.791565,402.809540 537.014160,401.917419 
	C537.911560,407.206665 536.102051,411.736511 534.694031,417.098328 
	C516.525574,409.476349 498.797607,402.039154 480.707764,394.523346 
M511.943634,376.594910 
	C508.706635,373.569427 504.798767,371.739410 500.582397,370.691681 
	C491.719635,368.489380 484.621735,373.390717 484.201050,381.689758 
	C484.065887,384.356079 484.889374,386.133057 487.407501,387.184753 
	C494.136047,389.994720 500.850250,392.840729 507.534485,395.754211 
	C510.152069,396.895142 511.895721,396.225311 513.324646,393.799347 
	C516.612793,388.216644 516.369690,382.488617 511.943634,376.594910 
z"/>
<path fill="#000000" opacity="1.000000" stroke="none" 
	d="
M101.201630,164.557343 
	C106.048042,152.935638 113.829521,147.538101 123.664391,148.715302 
	C133.142838,149.849854 142.098434,158.542206 143.433136,167.902969 
	C145.205734,180.334930 136.839645,191.506882 124.720139,192.892029 
	C113.294052,194.197906 101.148735,183.678665 100.576256,171.856812 
	C100.464928,169.557968 100.880928,167.233566 101.201630,164.557343 
M134.073181,166.488800 
	C129.707642,162.327866 125.068283,158.645203 118.984329,157.259811 
	C114.219482,156.174805 110.415367,157.489883 107.808258,161.643219 
	C105.281647,165.668304 105.992851,169.628448 108.692238,173.255951 
	C112.044014,177.760117 116.517311,180.908966 121.628845,183.118088 
	C127.831642,185.798843 132.363937,185.082611 135.698990,181.064774 
	C138.971375,177.122421 138.609589,172.696899 134.073181,166.488800 
z"/>
<path fill="#000000" opacity="1.000000" stroke="none" 
	d="
M425.062469,130.516174 
	C433.382843,114.872871 449.317444,111.128204 460.653778,121.830658 
	C469.832489,130.496140 470.193817,142.188644 461.569214,151.453018 
	C452.633789,161.051270 440.082947,162.044418 430.900940,153.854828 
	C423.815826,147.535477 421.782440,139.873947 425.062469,130.516174 
M440.475830,152.891174 
	C448.292175,151.728287 458.070129,142.753479 459.602417,135.191254 
	C460.441162,131.051804 459.920837,127.243820 456.300476,124.385399 
	C453.077972,121.841118 449.512329,121.527344 445.996399,123.244675 
	C439.127686,126.599609 434.233643,132.026596 431.754425,139.213028 
	C429.304810,146.313675 432.418091,151.277725 440.475830,152.891174 
z"/>
<path fill="#000000" opacity="1.000000" stroke="none" 
	d="
M201.154541,505.328613 
	C195.356125,508.890900 189.592102,510.271759 183.257019,508.213440 
	C172.095200,504.586853 166.323074,496.087585 167.729645,485.230682 
	C169.032196,475.176666 178.500671,466.080566 188.106476,465.655273 
	C199.012512,465.172394 208.739670,471.855042 210.839615,481.881348 
	C212.859879,491.527161 208.415268,498.914459 201.154541,505.328613 
M202.509705,478.268280 
	C199.465103,471.433533 193.072037,468.725494 187.745819,472.607574 
	C180.879257,477.612305 176.754303,484.524323 176.173965,493.191681 
	C175.874954,497.657898 177.998657,500.845276 182.018677,502.731567 
	C185.931900,504.567780 189.632370,503.849884 192.619843,500.972504 
	C198.794006,495.025909 203.084579,488.098053 202.509705,478.268280 
z"/>
<path fill="#000000" opacity="1.000000" stroke="none" 
	d="
M494.386566,435.980713 
	C489.859985,445.209442 483.178406,450.279816 472.839935,449.322632 
	C465.259644,448.620819 456.169800,441.058319 453.843262,433.513947 
	C450.690155,423.289093 455.840271,411.681763 465.516327,407.205109 
	C474.580109,403.011719 486.928558,407.212799 492.819031,416.639893 
	C496.559540,422.626190 497.557037,428.966980 494.386566,435.980713 
M481.947296,441.545898 
	C491.076141,438.378784 493.314301,430.962372 487.110565,423.773529 
	C482.898712,418.892853 477.637085,415.387848 471.339996,413.722046 
	C466.867035,412.538757 463.134094,413.880310 460.334106,417.622894 
	C457.726624,421.108154 457.540253,424.966400 459.968597,428.336792 
	C465.173889,435.561432 471.651703,441.094574 481.947296,441.545898 
z"/>
<path fill="#000000" opacity="1.000000" stroke="none" 
	d="
M147.312576,121.268547 
	C139.531555,129.784882 138.075668,127.291611 146.807861,137.037720 
	C149.585846,140.138245 152.400055,143.219559 155.379242,146.123398 
	C159.513763,150.153320 161.350342,150.008148 165.434113,146.000290 
	C166.887680,144.573746 167.619308,142.138306 170.249207,142.153564 
	C171.546921,146.251755 168.100952,153.193344 163.100540,156.618637 
	C159.131424,159.337479 155.067490,159.146027 151.633636,155.989471 
	C147.720184,152.392059 144.256439,148.306503 140.583282,144.446381 
	C136.622330,140.283798 133.681351,134.141388 125.824799,137.707520 
	C125.896782,136.292694 125.672684,135.404160 125.999352,135.092041 
	C129.417938,131.825516 128.251923,128.549438 126.173737,125.228889 
	C124.323593,122.272690 124.256393,119.646408 128.108521,117.223061 
	C132.874588,124.525665 137.858627,124.163834 143.720444,117.863388 
	C145.821350,115.605278 147.756424,117.978683 147.312576,121.268547 
z"/>
<path fill="#000000" opacity="1.000000" stroke="none" 
	d="
M473.793091,155.775726 
	C478.525665,153.476562 480.418671,150.179306 478.393158,144.414108 
	C483.244995,149.640671 487.761383,147.788788 492.466217,145.961929 
	C494.746033,145.076691 496.563416,146.468109 497.657166,148.574188 
	C497.294128,150.534409 495.759460,151.459152 494.377380,152.216782 
	C489.885559,154.679092 490.411469,157.410614 493.146820,161.008575 
	C494.577576,162.890518 498.585754,165.230087 494.860748,167.884216 
	C491.465210,170.303604 490.602234,165.904114 489.158508,164.175552 
	C485.089081,159.303238 485.214172,159.164703 479.855774,163.060883 
	C475.420837,166.285583 470.970459,169.493698 466.631439,172.844543 
	C461.729736,176.629990 461.612701,178.661636 465.521606,183.536819 
	C466.722626,185.034744 468.625488,186.122345 468.707520,188.371017 
	C467.657288,189.946381 466.325409,189.450684 465.206085,188.754364 
	C463.239014,187.530670 461.243805,186.279343 459.522858,184.745148 
	C451.497986,177.591309 451.727081,172.381012 460.306610,165.806915 
	C464.659943,162.471085 469.101593,159.250519 473.793091,155.775726 
z"/>
<path fill="#000000" opacity="1.000000" stroke="none" 
	d="
M164.170151,452.688538 
	C163.934097,447.113678 157.741302,446.587402 155.984222,442.401855 
	C160.204788,440.920654 168.268661,444.217865 171.573196,448.620575 
	C174.355103,452.327087 174.196411,456.696106 170.687454,460.987244 
	C167.212326,465.236969 163.244522,469.088837 159.840744,473.390503 
	C156.819641,477.208679 150.286102,480.160461 156.498718,486.498596 
	C155.196976,486.958160 154.527847,487.394318 154.326538,487.235901 
	C150.281174,484.053009 146.799805,485.442719 143.270096,488.275909 
	C140.843216,490.223877 138.366989,489.991760 136.290497,487.556091 
	C136.323074,487.147705 136.268555,486.790161 136.387222,486.504578 
	C137.614304,483.552094 141.646591,482.004395 141.557373,478.833191 
	C141.463608,475.500122 137.306534,474.537292 135.305542,472.165436 
	C134.286774,470.957764 133.366074,469.801941 134.660889,468.235443 
	C136.135666,466.451355 137.481750,467.265472 138.960861,468.311829 
	C146.883102,473.916412 146.995178,473.986176 153.300522,466.656342 
	C157.076965,462.266327 161.629288,458.458466 164.170151,452.688538 
z"/>
<path fill="#000000" opacity="1.000000" stroke="none" 
	d="
M428.215515,454.978210 
	C424.892334,456.286072 425.328583,454.111603 425.871063,452.618195 
	C427.603027,447.850342 430.164185,443.583160 434.688477,440.914001 
	C439.503265,438.073517 443.387390,440.298004 446.705811,443.673309 
	C450.782715,447.820007 454.570740,452.250061 458.503448,456.539459 
	C461.575745,459.890442 464.018707,464.870880 469.586975,460.537994 
	C470.122467,461.355499 470.507385,461.776978 470.441498,461.866425 
	C467.253235,466.195435 468.321136,470.233826 470.894714,474.442932 
	C472.292267,476.728760 471.313873,478.851685 469.180328,480.404175 
	C465.446808,479.252411 464.460022,474.201416 460.969421,474.171082 
	C457.421539,474.140228 455.591064,478.221588 452.752045,480.163208 
	C451.803680,480.811737 450.889313,480.792511 450.066010,479.967499 
	C449.196198,479.096008 448.544159,478.102142 449.373840,476.889893 
	C449.836639,476.213745 450.469086,475.643555 451.071411,475.074615 
	C457.286682,469.203461 458.809540,470.239075 451.066864,462.036896 
	C448.214294,459.015045 445.524689,455.839111 442.664154,452.825195 
	C437.345398,447.221252 435.539551,447.261780 430.147705,452.911072 
	C429.573914,453.512268 429.022400,454.134705 428.215515,454.978210 
z"/>
<path fill="#000000" opacity="1.000000" stroke="none" 
	d="
M348.015137,373.896973 
	C352.712311,378.742279 353.694916,384.077454 351.081970,389.782837 
	C348.717926,394.944702 344.435455,397.465210 338.662842,397.364868 
	C332.842133,397.263672 328.920532,394.363831 326.602661,389.205109 
	C324.264740,384.001740 325.863647,377.424042 330.204315,373.733826 
	C335.057220,369.608154 341.299011,369.576447 348.015137,373.896973 
z"/>
<path fill="#000000" opacity="1.000000" stroke="none" 
	d="
M354.542297,106.047279 
	C358.425293,106.169632 360.393585,104.516411 361.423645,101.147293 
	C363.025909,95.906654 364.953766,90.766502 366.675568,85.561264 
	C369.003784,78.522881 368.976166,78.513741 365.193176,72.432732 
	C369.925354,70.565109 374.385986,72.713989 378.787994,73.198128 
	C381.082062,73.450417 379.899292,75.885307 379.397247,77.366844 
	C377.050018,84.293472 374.479156,91.148376 372.296295,98.125305 
	C370.660522,103.353653 366.093903,108.852898 373.224304,113.146667 
	C372.046814,115.335678 370.833679,114.756653 369.787567,114.414398 
	C365.208008,112.916107 360.618195,111.436836 356.105377,109.754158 
	C354.685822,109.224854 352.028259,108.851822 354.542297,106.047279 
z"/>
<path fill="#000000" opacity="1.000000" stroke="none" 
	d="
M106.421318,254.271881 
	C105.262131,258.231415 105.445946,262.178040 103.171776,265.684845 
	C102.392357,265.249817 101.404373,264.989166 101.370186,264.636139 
	C100.757225,258.306458 95.768974,258.171844 91.232948,257.274475 
	C87.650551,256.565765 84.104088,255.674545 80.543640,254.855804 
	C72.579376,253.024384 72.579872,253.022217 66.331696,257.431396 
	C65.065903,252.542862 65.718193,247.871582 65.840050,242.728821 
	C72.197937,242.463623 77.706726,245.164642 83.520081,245.921173 
	C86.472740,246.305450 89.381142,247.089920 92.280533,247.810257 
	C97.522034,249.112488 102.972855,251.781631 106.502678,244.090363 
	C108.876755,248.145340 106.981094,250.981949 106.421318,254.271881 
z"/>
<path fill="#000000" opacity="1.000000" stroke="none" 
	d="
M277.572144,517.454529 
	C277.435089,519.060730 277.394012,520.223328 277.325104,521.384155 
	C276.869476,529.060181 276.867554,529.060059 281.752716,534.240479 
	C276.739990,535.802734 272.024445,535.906372 267.198944,536.181824 
	C265.677704,530.923645 267.694916,526.255310 267.891632,521.522949 
	C268.131836,515.744202 268.839813,509.950378 269.842957,504.250610 
	C270.477722,500.643921 270.091583,498.103851 266.381226,496.706848 
	C265.659576,496.435089 265.022125,495.735138 265.445435,494.060028 
	C272.130005,493.528870 278.697693,495.294708 285.286896,496.040802 
	C285.328949,496.978302 285.433716,497.548126 285.344666,497.580261 
	C277.972229,500.237885 278.908783,506.761047 278.311859,512.580933 
	C278.159729,514.064148 277.877625,515.534058 277.572144,517.454529 
z"/>
<path fill="#000000" opacity="1.000000" stroke="none" 
	d="
M504.874817,340.916199 
	C509.491119,341.949127 513.717896,342.827454 517.918091,343.818726 
	C522.540405,344.909637 527.360413,347.139160 530.504517,340.299500 
	C531.639709,345.896545 531.487915,350.693207 530.964783,356.223450 
	C522.312988,354.246704 514.115784,352.396851 505.930054,350.497437 
	C496.809204,348.381012 496.813751,348.361389 489.529663,353.007965 
	C490.014526,345.652344 491.543030,339.240967 494.804291,332.485718 
	C495.427917,338.911560 499.673096,340.219543 504.874817,340.916199 
z"/>
<path fill="#000000" opacity="1.000000" stroke="none" 
	d="
M175.462646,138.591705 
	C173.750595,135.392990 174.101440,132.760117 176.650696,130.695297 
	C178.504715,129.193573 180.776321,129.241440 182.786972,130.248581 
	C184.903137,131.308578 185.701462,133.370392 185.609070,135.701309 
	C185.521576,137.908752 184.333710,139.372040 182.381851,140.360352 
	C179.711929,141.712250 177.577454,140.940140 175.462646,138.591705 
z"/>
<path fill="#000000" opacity="1.000000" stroke="none" 
	d="
M143.537918,436.059753 
	C141.811905,431.860565 143.060913,429.027344 146.929504,427.923859 
	C150.343796,426.949951 152.808105,428.709198 153.713165,432.097046 
	C154.612244,435.462524 152.677826,437.479950 149.783783,438.630707 
	C147.209015,439.654510 145.313065,438.372375 143.537918,436.059753 
z"/>
<path fill="#000000" opacity="1.000000" stroke="none" 
	d="
M469.541809,202.055099 
	C468.027100,198.488754 468.547882,195.733963 471.817932,194.164917 
	C474.251007,192.997482 476.741699,193.242004 478.484039,195.634628 
	C480.388397,198.249771 480.527527,200.942413 477.917572,203.159576 
	C475.043396,205.601273 472.207336,205.476151 469.541809,202.055099 
z"/>
<path fill="#000000" opacity="1.000000" stroke="none" 
	d="
M413.130676,466.999023 
	C409.853882,463.553680 409.934021,460.458740 413.505219,457.911499 
	C416.569244,455.725983 419.128418,457.006256 421.158508,459.752380 
	C422.665009,461.790192 422.394226,463.842743 420.871918,465.678558 
	C418.858032,468.107147 416.414246,469.052429 413.130676,466.999023 
z"/>
<path fill="#000000" opacity="1.000000" stroke="none" 
	d="
M376.719940,53.864571 
	C379.682007,51.792938 382.316223,52.060890 384.728119,54.065628 
	C386.280640,55.356091 386.536896,57.156609 385.961395,59.054661 
	C384.966217,62.337170 381.421021,64.233963 378.520294,62.762001 
	C374.610931,60.778214 374.083710,57.742313 376.719940,53.864571 
z"/>
<path fill="#000000" opacity="1.000000" stroke="none" 
	d="
M55.399422,242.524323 
	C54.992836,248.635284 51.170822,251.162170 47.148270,248.372818 
	C45.187954,247.013489 44.367405,245.099945 44.856903,242.767334 
	C45.286457,240.720367 46.261009,238.984634 48.581749,238.654068 
	C51.626324,238.220413 54.217278,238.804428 55.399422,242.524323 
z"/>
<path fill="#000000" opacity="1.000000" stroke="none" 
	d="
M550.968506,351.253998 
	C553.037598,354.448730 552.359619,356.949310 549.915527,359.047668 
	C548.187134,360.531586 546.246521,360.415527 544.377747,359.261200 
	C542.157166,357.889618 541.302856,355.842468 541.781738,353.302917 
	C542.536316,349.300781 546.096375,348.377808 550.968506,351.253998 
z"/>
<path fill="#000000" opacity="1.000000" stroke="none" 
	d="
M272.781982,555.837219 
	C269.490417,557.745056 266.740601,557.211975 265.249207,554.270569 
	C263.729584,551.273438 266.863403,549.411438 268.273529,547.453735 
	C269.782410,545.358826 271.951477,546.976624 273.428497,548.299866 
	C276.195648,550.779053 275.364563,553.263916 272.781982,555.837219 
z"/>
</svg>